<svg width="12" height="9" viewBox="0 0 12 9" fill="none" xmlns="http://www.w3.org/2000/svg">
<path d="M5.018 8.07454L0.153916 1.82577C0.0536295 1.69212 0.000566036 1.5406 4.50351e-06 1.38627C-0.00055703 1.23194 0.0514029 1.08019 0.150715 0.94611C0.250027 0.812032 0.393229 0.700303 0.566075 0.622037C0.73892 0.543771 0.935384 0.501696 1.13592 0.5H10.8641C11.0646 0.501696 11.2611 0.543771 11.4339 0.622037C11.6068 0.700303 11.75 0.812032 11.8493 0.94611C11.9486 1.08019 12.0006 1.23194 12 1.38627C11.9994 1.5406 11.9464 1.69212 11.8461 1.82577L6.982 8.07454C6.87963 8.20442 6.73548 8.3118 6.56347 8.38633C6.39146 8.46085 6.1974 8.5 6 8.5C5.8026 8.5 5.60854 8.46085 5.43653 8.38633C5.26452 8.3118 5.12037 8.20442 5.018 8.07454Z" fill="#757575"/>
</svg>
