<svg width="24" height="24" viewBox="0 0 24 24" fill="none" xmlns="http://www.w3.org/2000/svg">
<rect width="24" height="24" rx="6" fill="url(#paint0_linear_370_5020)"/>
<rect width="24" height="24" rx="6" fill="url(#paint1_linear_370_5020)" fill-opacity="0.94"/>
<path d="M9.89211 12.0735C9.89211 10.8671 10.8703 9.88897 12.0774 9.88897C13.2844 9.88897 14.2632 10.8671 14.2632 12.0735C14.2632 13.2798 13.2844 14.2579 12.0774 14.2579C10.8703 14.2579 9.89211 13.2798 9.89211 12.0735ZM8.71051 12.0735C8.71051 13.9319 10.2179 15.4383 12.0774 15.4383C13.9369 15.4383 15.4443 13.9319 15.4443 12.0735C15.4443 10.215 13.9369 8.7086 12.0774 8.7086C10.2179 8.7086 8.71051 10.215 8.71051 12.0735ZM14.7907 8.57518C14.7907 8.73071 14.8368 8.88276 14.9232 9.01211C15.0096 9.14146 15.1324 9.24229 15.2762 9.30187C15.4199 9.36144 15.5781 9.37708 15.7308 9.3468C15.8834 9.31652 16.0236 9.24168 16.1337 9.13175C16.2438 9.02182 16.3188 8.88174 16.3492 8.72921C16.3796 8.57669 16.3641 8.41857 16.3046 8.27486C16.2451 8.13115 16.1443 8.0083 16.015 7.92184C15.8856 7.83538 15.7335 7.7892 15.5779 7.78914H15.5776C15.369 7.78924 15.1689 7.87207 15.0214 8.01945C14.8739 8.16683 14.7909 8.36671 14.7907 8.57518ZM9.42841 17.4074C8.78914 17.3783 8.44168 17.2719 8.21077 17.182C7.90464 17.0629 7.68622 16.921 7.45657 16.6918C7.22692 16.4626 7.08477 16.2445 6.96612 15.9386C6.8761 15.7079 6.76962 15.3606 6.74056 14.7217C6.70877 14.031 6.70243 13.8235 6.70243 12.0735C6.70243 10.3236 6.7093 10.1166 6.74056 9.42533C6.76967 8.78645 6.87694 8.43977 6.96612 8.20842C7.08529 7.90248 7.22724 7.68419 7.45657 7.45468C7.6859 7.22517 7.90412 7.0831 8.21077 6.96452C8.44157 6.87456 8.78914 6.76814 9.42841 6.73909C10.1196 6.70733 10.3272 6.70098 12.0774 6.70098C13.8276 6.70098 14.0354 6.70785 14.7272 6.73909C15.3664 6.76819 15.7133 6.8754 15.9448 6.96452C16.2509 7.0831 16.4693 7.22548 16.699 7.45468C16.9286 7.68387 17.0703 7.90248 17.1895 8.20842C17.2795 8.43909 17.3859 8.78645 17.415 9.42533C17.4468 10.1166 17.4531 10.3236 17.4531 12.0735C17.4531 13.8235 17.4468 14.0304 17.415 14.7217C17.3859 15.3606 17.2789 15.7078 17.1895 15.9386C17.0703 16.2445 16.9283 16.4628 16.699 16.6918C16.4697 16.9208 16.2509 17.0629 15.9448 17.182C15.714 17.2719 15.3664 17.3784 14.7272 17.4074C14.036 17.4392 13.8284 17.4455 12.0774 17.4455C10.3264 17.4455 10.1193 17.4392 9.42841 17.4074ZM9.37412 5.56019C8.6761 5.59196 8.19913 5.70257 7.78258 5.86456C7.35119 6.03185 6.986 6.25627 6.62107 6.62041C6.25614 6.98454 6.03215 7.35009 5.86477 7.78122C5.70268 8.19778 5.592 8.67421 5.56022 9.37181C5.5279 10.0705 5.52051 10.2939 5.52051 12.0735C5.52051 13.853 5.5279 14.0764 5.56022 14.7751C5.592 15.4728 5.70268 15.9491 5.86477 16.3657C6.03215 16.7966 6.25619 17.1625 6.62107 17.5265C6.98594 17.8905 7.35119 18.1146 7.78258 18.2824C8.19991 18.4443 8.6761 18.555 9.37412 18.5867C10.0736 18.6185 10.2968 18.6264 12.0774 18.6264C13.858 18.6264 14.0815 18.619 14.7807 18.5867C15.4787 18.555 15.9554 18.4443 16.3722 18.2824C16.8033 18.1146 17.1688 17.8906 17.5337 17.5265C17.8986 17.1624 18.1222 16.7966 18.29 16.3657C18.4521 15.9491 18.5633 15.4727 18.5946 14.7751C18.6264 14.0759 18.6337 13.853 18.6337 12.0735C18.6337 10.2939 18.6264 10.0705 18.5946 9.37181C18.5628 8.67415 18.4521 8.19752 18.29 7.78122C18.1222 7.35035 17.8981 6.98512 17.5337 6.62041C17.1694 6.2557 16.8033 6.03185 16.3727 5.86456C15.9554 5.70257 15.4787 5.59144 14.7812 5.56019C14.0821 5.52842 13.8586 5.52051 12.0779 5.52051C10.2973 5.52051 10.0736 5.5279 9.37412 5.56019Z" fill="white"/>
<defs>
<linearGradient id="paint0_linear_370_5020" x1="12" y1="0" x2="12" y2="24" gradientUnits="userSpaceOnUse">
<stop stop-color="#B349F4"/>
<stop offset="1" stop-color="#FF1F15"/>
</linearGradient>
<linearGradient id="paint1_linear_370_5020" x1="-3" y1="27" x2="17.25" y2="5.25" gradientUnits="userSpaceOnUse">
<stop stop-color="#FFCB46"/>
<stop offset="1" stop-color="#FFC754" stop-opacity="0"/>
</linearGradient>
</defs>
</svg>
