<svg width="24" height="24" viewBox="0 0 24 24" fill="none" xmlns="http://www.w3.org/2000/svg">
<rect width="24" height="24" rx="6" fill="#E7161B"/>
<path fill-rule="evenodd" clip-rule="evenodd" d="M17.2245 7.48553C17.8142 7.6448 18.2778 8.10953 18.4345 8.69862C18.7196 9.76771 18.7195 11.9997 18.7195 11.9997C18.7195 11.9997 18.7196 14.2317 18.4345 15.3008C18.2756 15.8921 17.812 16.3568 17.2245 16.5139C16.1581 16.7997 11.8796 16.7997 11.8796 16.7997C11.8796 16.7997 7.60319 16.7997 6.53464 16.5139C5.94488 16.3546 5.48133 15.8899 5.32464 15.3008C5.03955 14.2317 5.03955 11.9997 5.03955 11.9997C5.03955 11.9997 5.03955 9.76771 5.32464 8.69862C5.48351 8.10734 5.94705 7.64262 6.53464 7.48553C7.60319 7.19971 11.8796 7.19971 11.8796 7.19971C11.8796 7.19971 16.1581 7.19971 17.2245 7.48553ZM14.0667 11.9997L10.5129 14.0572V9.94225L14.0667 11.9997Z" fill="white"/>
</svg>
