<svg width="32" height="32" viewBox="0 0 32 32" fill="none" xmlns="http://www.w3.org/2000/svg">
<g clip-path="url(#clip0_349_2564)">
<path d="M24.334 9H7.66732C6.93094 9 6.33398 9.59695 6.33398 10.3333V29C6.33398 29.7364 6.93094 30.3333 7.66732 30.3333H24.334C25.0704 30.3333 25.6673 29.7364 25.6673 29V10.3333C25.6673 9.59695 25.0704 9 24.334 9Z" stroke="white" stroke-width="2"/>
<path fill-rule="evenodd" clip-rule="evenodd" d="M21.5393 0.934298L21.6833 0.980298C21.8065 1.01952 21.9198 1.08449 22.016 1.17088C22.1121 1.25728 22.1887 1.36313 22.2408 1.48141C22.2929 1.59968 22.3192 1.72769 22.318 1.85692C22.3168 1.98615 22.2882 2.11365 22.234 2.23096L19.0073 9.2003C18.905 9.42127 18.7255 9.59731 18.5026 9.69538C18.2797 9.79345 18.0287 9.80681 17.7966 9.73296L17.6526 9.68696C17.5295 9.64774 17.4161 9.58278 17.32 9.49638C17.2239 9.40998 17.1473 9.30413 17.0952 9.18586C17.0431 9.06758 17.0168 8.93958 17.0179 8.81034C17.0191 8.68111 17.0478 8.55361 17.102 8.4363L20.3286 1.46696C20.431 1.24599 20.6104 1.06996 20.8333 0.971885C21.0562 0.873814 21.3073 0.860449 21.5393 0.934298ZM10.4633 0.934298L10.3193 0.980298C10.1962 1.01952 10.0828 1.08449 9.98667 1.17088C9.89055 1.25728 9.81392 1.36313 9.76184 1.48141C9.70976 1.59968 9.68343 1.72769 9.68461 1.85692C9.68578 1.98615 9.71443 2.11365 9.76864 2.23096L12.9953 9.2003C13.0976 9.42127 13.2771 9.59731 13.5 9.69538C13.7229 9.79345 13.9739 9.80681 14.206 9.73296L14.35 9.68696C14.4731 9.64774 14.5865 9.58278 14.6826 9.49638C14.7787 9.40998 14.8554 9.30413 14.9074 9.18586C14.9595 9.06758 14.9859 8.93958 14.9847 8.81034C14.9835 8.68111 14.9549 8.55361 14.9006 8.4363L11.674 1.46696C11.5716 1.24599 11.3922 1.06996 11.1693 0.971885C10.9464 0.873814 10.6954 0.860449 10.4633 0.934298Z" fill="white"/>
<path d="M16.0003 21.6667C17.289 21.6667 18.3337 20.622 18.3337 19.3333C18.3337 18.0447 17.289 17 16.0003 17C14.7117 17 13.667 18.0447 13.667 19.3333C13.667 20.622 14.7117 21.6667 16.0003 21.6667Z" stroke="white" stroke-width="2"/>
<path d="M21.3337 30.0003C21.3337 28.5858 20.7718 27.2293 19.7716 26.2291C18.7714 25.2289 17.4148 24.667 16.0003 24.667C14.5858 24.667 13.2293 25.2289 12.2291 26.2291C11.2289 27.2293 10.667 28.5858 10.667 30.0003" stroke="white" stroke-width="2" stroke-linecap="round"/>
</g>
<defs>
<clipPath id="clip0_349_2564">
<rect width="32" height="32" fill="white"/>
</clipPath>
</defs>
</svg>
