<svg width="48" height="48" viewBox="0 0 48 48" fill="none" xmlns="http://www.w3.org/2000/svg">
<g clip-path="url(#clip0_21_1492)">
<path d="M36.5 13.5H11.5C10.3954 13.5 9.5 14.3954 9.5 15.5V43.5C9.5 44.6046 10.3954 45.5 11.5 45.5H36.5C37.6046 45.5 38.5 44.6046 38.5 43.5V15.5C38.5 14.3954 37.6046 13.5 36.5 13.5Z" stroke="#CCCCCC" stroke-width="3"/>
<path fill-rule="evenodd" clip-rule="evenodd" d="M32.307 1.4012L32.523 1.4702C32.7077 1.52904 32.8778 1.62649 33.022 1.75608C33.1661 1.88567 33.2811 2.04445 33.3592 2.22187C33.4373 2.39928 33.4768 2.59129 33.4751 2.78513C33.4733 2.97898 33.4303 3.17023 33.349 3.3462L28.509 13.8002C28.3555 14.1317 28.0863 14.3957 27.752 14.5428C27.4176 14.6899 27.0411 14.71 26.693 14.5992L26.477 14.5302C26.2923 14.4714 26.1222 14.3739 25.978 14.2443C25.8339 14.1147 25.7189 13.956 25.6408 13.7785C25.5627 13.6011 25.5232 13.4091 25.525 13.2153C25.5267 13.0214 25.5697 12.8302 25.651 12.6542L30.491 2.2002C30.6445 1.86874 30.9137 1.60469 31.248 1.45758C31.5824 1.31048 31.9589 1.29043 32.307 1.4012ZM15.693 1.4012L15.477 1.4702C15.2923 1.52904 15.1222 1.62649 14.978 1.75608C14.8339 1.88567 14.7189 2.04445 14.6408 2.22187C14.5627 2.39928 14.5232 2.59129 14.525 2.78513C14.5267 2.97898 14.5697 3.17023 14.651 3.3462L19.491 13.8002C19.6445 14.1317 19.9137 14.3957 20.248 14.5428C20.5824 14.6899 20.9589 14.71 21.307 14.5992L21.523 14.5302C21.7077 14.4714 21.8778 14.3739 22.022 14.2443C22.1661 14.1147 22.2811 13.956 22.3592 13.7785C22.4373 13.6011 22.4768 13.4091 22.4751 13.2153C22.4733 13.0214 22.4303 12.8302 22.349 12.6542L17.509 2.2002C17.3555 1.86874 17.0863 1.60469 16.752 1.45758C16.4176 1.31048 16.0411 1.29043 15.693 1.4012Z" fill="#CCCCCC"/>
<path d="M24 32.5C25.933 32.5 27.5 30.933 27.5 29C27.5 27.067 25.933 25.5 24 25.5C22.067 25.5 20.5 27.067 20.5 29C20.5 30.933 22.067 32.5 24 32.5Z" stroke="#CCCCCC" stroke-width="3"/>
<path d="M32 45C32 42.8783 31.1571 40.8434 29.6569 39.3431C28.1566 37.8429 26.1217 37 24 37C21.8783 37 19.8434 37.8429 18.3431 39.3431C16.8429 40.8434 16 42.8783 16 45" stroke="#CCCCCC" stroke-width="3" stroke-linecap="round"/>
</g>
<defs>
<clipPath id="clip0_21_1492">
<rect width="48" height="48" fill="white"/>
</clipPath>
</defs>
</svg>
