<svg width="25" height="24" viewBox="0 0 25 24" fill="none" xmlns="http://www.w3.org/2000/svg">
<path fill-rule="evenodd" clip-rule="evenodd" d="M8.20711 8.29289C8.59763 8.68342 8.59763 9.31658 8.20711 9.70711L4.91421 13L8.20711 16.2929C8.59763 16.6834 8.59763 17.3166 8.20711 17.7071C7.81658 18.0976 7.18342 18.0976 6.79289 17.7071L2.79289 13.7071C2.40237 13.3166 2.40237 12.6834 2.79289 12.2929L6.79289 8.29289C7.18342 7.90237 7.81658 7.90237 8.20711 8.29289Z" fill="white"/>
<path fill-rule="evenodd" clip-rule="evenodd" d="M21.5 6C22.0523 6 22.5 6.44772 22.5 7V9C22.5 10.3261 21.9732 11.5979 21.0355 12.5355C20.0979 13.4732 18.8261 14 17.5 14H3.5C2.94772 14 2.5 13.5523 2.5 13C2.5 12.4477 2.94772 12 3.5 12H17.5C18.2956 12 19.0587 11.6839 19.6213 11.1213C20.1839 10.5587 20.5 9.79565 20.5 9V7C20.5 6.44772 20.9477 6 21.5 6Z" fill="white"/>
</svg>
