<svg width="48" height="48" viewBox="0 0 48 48" fill="none" xmlns="http://www.w3.org/2000/svg">
<path d="M19.7832 24.1459C19.7832 21.7333 21.7397 19.777 24.1538 19.777C26.5679 19.777 28.5254 21.7333 28.5254 24.1459C28.5254 26.5586 26.5679 28.5149 24.1538 28.5149C21.7397 28.5149 19.7832 26.5586 19.7832 24.1459ZM17.42 24.1459C17.42 27.8628 20.4347 30.8757 24.1538 30.8757C27.8729 30.8757 30.8876 27.8628 30.8876 24.1459C30.8876 20.4291 27.8729 17.4162 24.1538 17.4162C20.4347 17.4162 17.42 20.4291 17.42 24.1459ZM29.5805 17.1494C29.5804 17.4604 29.6725 17.7645 29.8453 18.0232C30.0182 18.2819 30.2638 18.4836 30.5513 18.6028C30.8388 18.7219 31.1552 18.7532 31.4605 18.6926C31.7658 18.6321 32.0463 18.4824 32.2664 18.2625C32.4866 18.0427 32.6366 17.7625 32.6974 17.4574C32.7583 17.1524 32.7272 16.8362 32.6082 16.5487C32.4893 16.2613 32.2877 16.0156 32.0289 15.8427C31.7702 15.6698 31.466 15.5774 31.1548 15.5773H31.1541C30.737 15.5775 30.3369 15.7432 30.0418 16.0379C29.7468 16.3327 29.5809 16.7324 29.5805 17.1494V17.1494ZM18.8558 34.8138C17.5773 34.7556 16.8824 34.5428 16.4206 34.363C15.8083 34.1248 15.3715 33.8411 14.9122 33.3827C14.4529 32.9243 14.1686 32.4881 13.9313 31.8762C13.7512 31.4149 13.5383 30.7202 13.4801 29.4424C13.4166 28.0609 13.4039 27.646 13.4039 24.146C13.4039 20.6461 13.4176 20.2323 13.4801 18.8497C13.5384 17.5719 13.7529 16.8786 13.9313 16.4159C14.1696 15.804 14.4535 15.3674 14.9122 14.9084C15.3708 14.4494 15.8073 14.1652 16.4206 13.9281C16.8822 13.7481 17.5773 13.5353 18.8558 13.4772C20.2381 13.4137 20.6534 13.401 24.1538 13.401C27.6542 13.401 28.0699 13.4147 29.4533 13.4772C30.7319 13.5354 31.4256 13.7498 31.8886 13.9281C32.5009 14.1652 32.9377 14.45 33.397 14.9084C33.8563 15.3668 34.1396 15.804 34.3779 16.4159C34.558 16.8772 34.7709 17.5719 34.829 18.8497C34.8926 20.2323 34.9053 20.6461 34.9053 24.146C34.9053 27.646 34.8926 28.0598 34.829 29.4424C34.7708 30.7202 34.5568 31.4147 34.3779 31.8762C34.1396 32.4881 33.8557 32.9247 33.397 33.3827C32.9383 33.8406 32.5009 34.1248 31.8886 34.363C31.427 34.5429 30.7319 34.7557 29.4533 34.8138C28.071 34.8774 27.6558 34.8901 24.1538 34.8901C20.6518 34.8901 20.2377 34.8774 18.8558 34.8138V34.8138ZM18.7473 11.1194C17.3512 11.1829 16.3973 11.4042 15.5642 11.7282C14.7014 12.0627 13.971 12.5116 13.2412 13.2398C12.5113 13.9681 12.0633 14.6992 11.7286 15.5615C11.4044 16.3946 11.183 17.3474 11.1195 18.7426C11.0548 20.14 11.04 20.5868 11.04 24.1459C11.04 27.7051 11.0548 28.1518 11.1195 29.5492C11.183 30.9445 11.4044 31.8973 11.7286 32.7304C12.0633 33.5922 12.5114 34.3241 13.2412 35.052C13.9709 35.78 14.7014 36.2282 15.5642 36.5637C16.3988 36.8877 17.3512 37.1089 18.7473 37.1725C20.1462 37.236 20.5925 37.2518 24.1538 37.2518C27.7151 37.2518 28.1621 37.2371 29.5603 37.1725C30.9565 37.1089 31.9098 36.8877 32.7434 36.5637C33.6057 36.2282 34.3366 35.7803 35.0664 35.052C35.7963 34.3238 36.2433 33.5922 36.579 32.7304C36.9032 31.8973 37.1256 30.9444 37.1882 29.5492C37.2517 28.1508 37.2665 27.7051 37.2665 24.1459C37.2665 20.5868 37.2517 20.14 37.1882 18.7426C37.1246 17.3473 36.9032 16.3941 36.579 15.5615C36.2433 14.6997 35.7952 13.9693 35.0664 13.2398C34.3377 12.5104 33.6057 12.0627 32.7445 11.7282C31.9098 11.4042 30.9564 11.1819 29.5614 11.1194C28.1632 11.0559 27.7161 11.04 24.1549 11.04C20.5936 11.04 20.1462 11.0548 18.7473 11.1194Z" fill="white"/>
</svg>
