<svg width="48" height="48" viewBox="0 0 48 48" fill="none" xmlns="http://www.w3.org/2000/svg">
<path d="M30.5 20H17.5C16.6716 20 16 20.6716 16 21.5C16 22.3284 16.6716 23 17.5 23H30.5C31.3284 23 32 22.3284 32 21.5C32 20.6716 31.3284 20 30.5 20Z" fill="#CCCCCC"/>
<path d="M16.5 4H7.5C6.67157 4 6 4.67157 6 5.5C6 6.32843 6.67157 7 7.5 7H16.5C17.3284 7 18 6.32843 18 5.5C18 4.67157 17.3284 4 16.5 4Z" fill="#CCCCCC"/>
<path d="M25.5 44H7.5C6.67157 44 6 44.6716 6 45.5C6 46.3284 6.67157 47 7.5 47H25.5C26.3284 47 27 46.3284 27 45.5C27 44.6716 26.3284 44 25.5 44Z" fill="#CCCCCC"/>
<path d="M8.81201 45.594L8.81201 5.406C8.81201 4.62949 8.18252 4 7.40601 4H7.40501C6.6285 4 5.99901 4.62949 5.99901 5.406L5.99901 45.594C5.99901 46.3705 6.6285 47 7.40501 47H7.40601C8.18252 47 8.81201 46.3705 8.81201 45.594Z" fill="#CCCCCC"/>
<path d="M31.5 4H40.5C41.3284 4 42 4.67157 42 5.5C42 6.32843 41.3284 7 40.5 7H31.5C30.6716 7 30 6.32843 30 5.5C30 4.67157 30.6716 4 31.5 4Z" fill="#CCCCCC"/>
<path d="M22.5 44H40.5C41.3284 44 42 44.6716 42 45.5C42 46.3284 41.3284 47 40.5 47H22.5C21.6716 47 21 46.3284 21 45.5C21 44.6716 21.6716 44 22.5 44Z" fill="#CCCCCC"/>
<path d="M39.188 45.594V5.406C39.188 4.62949 39.8175 4 40.594 4H40.595C41.3715 4 42.001 4.62949 42.001 5.406V45.594C42.001 46.3705 41.3715 47 40.595 47H40.594C39.8175 47 39.188 46.3705 39.188 45.594Z" fill="#CCCCCC"/>
<path d="M30.5 27H17.5C16.6716 27 16 27.6716 16 28.5C16 29.3284 16.6716 30 17.5 30H30.5C31.3284 30 32 29.3284 32 28.5C32 27.6716 31.3284 27 30.5 27Z" fill="#CCCCCC"/>
<path d="M28.5 2.5H19.5C18.3954 2.5 17.5 3.39543 17.5 4.5V6.5C17.5 7.60457 18.3954 8.5 19.5 8.5H28.5C29.6046 8.5 30.5 7.60457 30.5 6.5V4.5C30.5 3.39543 29.6046 2.5 28.5 2.5Z" stroke="#CCCCCC" stroke-width="3"/>
</svg>
