<svg width="100" height="100" viewBox="0 0 100 100" fill="none" xmlns="http://www.w3.org/2000/svg">
<path d="M71.7236 49.5862V20" stroke="#757575" stroke-width="2.06897" stroke-miterlimit="10" stroke-linecap="round" stroke-linejoin="round"/>
<path d="M71.7237 20H28.2754V49.5862" stroke="#757575" stroke-width="2.06897" stroke-miterlimit="10" stroke-linecap="round" stroke-linejoin="round"/>
<path d="M60.3452 58.5055L77.9314 44.8276V80H22.0693V44.8276L39.7673 58.5924" stroke="#757575" stroke-width="2.06897" stroke-miterlimit="10" stroke-linecap="round" stroke-linejoin="round"/>
<path d="M22.0693 76.8965L50.0004 57.2414L77.9314 76.8965" stroke="#757575" stroke-width="2.06897" stroke-miterlimit="10" stroke-linecap="round" stroke-linejoin="round"/>
<path d="M71.7129 39.7628L77.9301 44.8276" stroke="#757575" stroke-width="2.06897" stroke-miterlimit="10" stroke-linecap="round" stroke-linejoin="round"/>
<path d="M22.0693 44.8276L28.2762 39.771" stroke="#757575" stroke-width="2.06897" stroke-miterlimit="10" stroke-linecap="round" stroke-linejoin="round"/>
<path d="M60.2861 36.5103C60.3234 36.8641 60.342 37.2221 60.342 37.5862C60.342 43.3007 55.7096 47.931 49.9972 47.931C44.2848 47.931 39.6523 43.3007 39.6523 37.5862C39.6523 31.8738 44.2848 27.2414 49.9972 27.2414C51.9006 27.2414 53.682 27.7565 55.2151 28.6524" stroke="#757575" stroke-width="2.06897" stroke-miterlimit="10" stroke-linecap="round" stroke-linejoin="round"/>
<path d="M59.9113 30.3055L49.9989 40.2179L45.2217 35.4448" stroke="#757575" stroke-width="2.06897" stroke-miterlimit="10" stroke-linecap="round" stroke-linejoin="round"/>
</svg>
