<svg width="29" height="28" viewBox="0 0 29 28" fill="none" xmlns="http://www.w3.org/2000/svg">
<circle cx="14.6665" cy="14" r="14" fill="#CCCCCC"/>
<g clip-path="url(#clip0_283_2895)">
<path d="M22.0171 11C22.0171 11 21.8706 9.96582 21.4194 9.51172C20.8481 8.91406 20.2095 8.91113 19.9165 8.87598C17.8188 8.72363 14.6694 8.72363 14.6694 8.72363H14.6636C14.6636 8.72363 11.5142 8.72363 9.4165 8.87598C9.12354 8.91113 8.48486 8.91406 7.91357 9.51172C7.4624 9.96582 7.31885 11 7.31885 11C7.31885 11 7.1665 12.2158 7.1665 13.4287V14.5654C7.1665 15.7783 7.31592 16.9941 7.31592 16.9941C7.31592 16.9941 7.4624 18.0283 7.91064 18.4824C8.48193 19.0801 9.23193 19.0596 9.56592 19.124C10.7671 19.2383 14.6665 19.2734 14.6665 19.2734C14.6665 19.2734 17.8188 19.2676 19.9165 19.1182C20.2095 19.083 20.8481 19.0801 21.4194 18.4824C21.8706 18.0283 22.0171 16.9941 22.0171 16.9941C22.0171 16.9941 22.1665 15.7812 22.1665 14.5654V13.4287C22.1665 12.2158 22.0171 11 22.0171 11ZM13.1167 15.9453V11.7295L17.1685 13.8447L13.1167 15.9453Z" fill="#EEEEEE"/>
</g>
<defs>
<clipPath id="clip0_283_2895">
<rect width="15" height="15" fill="white" transform="translate(7.1665 6.5)"/>
</clipPath>
</defs>
</svg>
