<svg width="29" height="28" viewBox="0 0 29 28" fill="none" xmlns="http://www.w3.org/2000/svg">
<circle cx="14.6665" cy="14" r="14" fill="#CCCCCC"/>
<g clip-path="url(#clip0_283_2889)">
<path d="M14.6665 7.44062C16.804 7.44062 17.0571 7.45 17.8978 7.4875C18.679 7.52187 19.1009 7.65313 19.3821 7.7625C19.754 7.90625 20.0228 8.08125 20.3009 8.35937C20.5821 8.64062 20.754 8.90625 20.8978 9.27813C21.0071 9.55937 21.1384 9.98437 21.1728 10.7625C21.2103 11.6062 21.2196 11.8594 21.2196 13.9937C21.2196 16.1312 21.2103 16.3844 21.1728 17.225C21.1384 18.0063 21.0071 18.4281 20.8978 18.7094C20.754 19.0813 20.579 19.35 20.3009 19.6281C20.0196 19.9094 19.754 20.0813 19.3821 20.225C19.1009 20.3344 18.6759 20.4656 17.8978 20.5C17.054 20.5375 16.8009 20.5469 14.6665 20.5469C12.529 20.5469 12.2759 20.5375 11.4353 20.5C10.654 20.4656 10.2321 20.3344 9.95088 20.225C9.579 20.0813 9.31025 19.9062 9.03213 19.6281C8.75088 19.3469 8.579 19.0813 8.43525 18.7094C8.32588 18.4281 8.19463 18.0031 8.16025 17.225C8.12275 16.3813 8.11338 16.1281 8.11338 13.9937C8.11338 11.8562 8.12275 11.6031 8.16025 10.7625C8.19463 9.98125 8.32588 9.55937 8.43525 9.27813C8.579 8.90625 8.754 8.6375 9.03213 8.35937C9.31338 8.07812 9.579 7.90625 9.95088 7.7625C10.2321 7.65313 10.6571 7.52187 11.4353 7.4875C12.2759 7.45 12.529 7.44062 14.6665 7.44062ZM14.6665 6C12.4946 6 12.2228 6.00937 11.3696 6.04687C10.5196 6.08437 9.93525 6.22187 9.429 6.41875C8.90088 6.625 8.454 6.89687 8.01025 7.34375C7.56338 7.7875 7.2915 8.23438 7.08525 8.75938C6.88838 9.26875 6.75088 9.85 6.71338 10.7C6.67588 11.5562 6.6665 11.8281 6.6665 14C6.6665 16.1719 6.67588 16.4437 6.71338 17.2969C6.75088 18.1469 6.88838 18.7312 7.08525 19.2375C7.2915 19.7656 7.56338 20.2125 8.01025 20.6562C8.454 21.1 8.90088 21.375 9.42588 21.5781C9.93525 21.775 10.5165 21.9125 11.3665 21.95C12.2196 21.9875 12.4915 21.9969 14.6634 21.9969C16.8353 21.9969 17.1071 21.9875 17.9603 21.95C18.8103 21.9125 19.3946 21.775 19.9009 21.5781C20.4259 21.375 20.8728 21.1 21.3165 20.6562C21.7603 20.2125 22.0353 19.7656 22.2384 19.2406C22.4353 18.7312 22.5728 18.15 22.6103 17.3C22.6478 16.4469 22.6571 16.175 22.6571 14.0031C22.6571 11.8313 22.6478 11.5594 22.6103 10.7062C22.5728 9.85625 22.4353 9.27187 22.2384 8.76562C22.0415 8.23437 21.7696 7.7875 21.3228 7.34375C20.879 6.9 20.4321 6.625 19.9071 6.42187C19.3978 6.225 18.8165 6.0875 17.9665 6.05C17.1103 6.00938 16.8384 6 14.6665 6Z" fill="#EEEEEE"/>
<path d="M14.6665 9.89062C12.3978 9.89062 10.5571 11.7313 10.5571 14C10.5571 16.2688 12.3978 18.1094 14.6665 18.1094C16.9353 18.1094 18.7759 16.2688 18.7759 14C18.7759 11.7313 16.9353 9.89062 14.6665 9.89062ZM14.6665 16.6656C13.1946 16.6656 12.0009 15.4719 12.0009 14C12.0009 12.5281 13.1946 11.3344 14.6665 11.3344C16.1384 11.3344 17.3321 12.5281 17.3321 14C17.3321 15.4719 16.1384 16.6656 14.6665 16.6656Z" fill="#EEEEEE"/>
<path d="M19.8978 9.72793C19.8978 10.2592 19.4665 10.6873 18.9384 10.6873C18.4071 10.6873 17.979 10.2561 17.979 9.72793C17.979 9.19668 18.4103 8.76855 18.9384 8.76855C19.4665 8.76855 19.8978 9.19981 19.8978 9.72793Z" fill="#EEEEEE"/>
</g>
<defs>
<clipPath id="clip0_283_2889">
<rect width="16" height="16" fill="white" transform="translate(6.6665 6)"/>
</clipPath>
</defs>
</svg>
