<svg width="48" height="48" viewBox="0 0 48 48" fill="none" xmlns="http://www.w3.org/2000/svg">
<path d="M36.6004 11.4204C35.8204 10.6404 34.5604 10.6404 33.7804 11.4204L24.0004 21.1804L14.2204 11.4004C13.4404 10.6204 12.1804 10.6204 11.4004 11.4004C10.6204 12.1804 10.6204 13.4404 11.4004 14.2204L21.1804 24.0004L11.4004 33.7804C10.6204 34.5604 10.6204 35.8204 11.4004 36.6004C12.1804 37.3804 13.4404 37.3804 14.2204 36.6004L24.0004 26.8204L33.7804 36.6004C34.5604 37.3804 35.8204 37.3804 36.6004 36.6004C37.3804 35.8204 37.3804 34.5604 36.6004 33.7804L26.8204 24.0004L36.6004 14.2204C37.3604 13.4604 37.3604 12.1804 36.6004 11.4204Z" fill="#9E9E9E"/>
</svg>
