<svg width="48" height="48" viewBox="0 0 48 48" fill="none" xmlns="http://www.w3.org/2000/svg">
<path fill-rule="evenodd" clip-rule="evenodd" d="M34.4499 14.9715C35.6294 15.2901 36.5565 16.2195 36.8699 17.3977C37.4401 19.5359 37.4401 23.9999 37.4401 23.9999C37.4401 23.9999 37.4401 28.4639 36.8699 30.6021C36.5522 31.7846 35.6251 32.7141 34.4499 33.0283C32.3172 33.5999 23.7601 33.5999 23.7601 33.5999C23.7601 33.5999 15.2074 33.5999 13.0703 33.0283C11.8907 32.7097 10.9636 31.7803 10.6503 30.6021C10.0801 28.4639 10.0801 23.9999 10.0801 23.9999C10.0801 23.9999 10.0801 19.5359 10.6503 17.3977C10.968 16.2152 11.8951 15.2857 13.0703 14.9715C15.2074 14.3999 23.7601 14.3999 23.7601 14.3999C23.7601 14.3999 32.3172 14.3999 34.4499 14.9715ZM28.1344 23.9999L21.0267 28.1148V19.885L28.1344 23.9999Z" fill="white"/>
</svg>
