<svg width="48" height="48" viewBox="0 0 48 48" fill="none" xmlns="http://www.w3.org/2000/svg">
<path d="M41.5 8.5H6.5C5.39543 8.5 4.5 9.39543 4.5 10.5V40.5C4.5 41.6046 5.39543 42.5 6.5 42.5H41.5C42.6046 42.5 43.5 41.6046 43.5 40.5V10.5C43.5 9.39543 42.6046 8.5 41.5 8.5Z" stroke="#CCCCCC" stroke-width="3"/>
<path d="M37 25.5C37.8284 25.5 38.5 24.8284 38.5 24C38.5 23.1716 37.8284 22.5 37 22.5H24C23.1716 22.5 22.5 23.1716 22.5 24C22.5 24.8284 23.1716 25.5 24 25.5H37Z" fill="#CCCCCC"/>
<path opacity="0.4" d="M30.5 31.5C31.3284 31.5 32 30.8284 32 30C32 29.1716 31.3284 28.5 30.5 28.5C29.6716 28.5 29 29.1716 29 30C29 30.8284 29.6716 31.5 30.5 31.5Z" fill="#CCCCCC"/>
<path opacity="0.4" d="M30.5 37.5C31.3284 37.5 32 36.8284 32 36C32 35.1716 31.3284 34.5 30.5 34.5C29.6716 34.5 29 35.1716 29 36C29 36.8284 29.6716 37.5 30.5 37.5Z" fill="#CCCCCC"/>
<path opacity="0.4" d="M12.5 37.5C13.3284 37.5 14 36.8284 14 36C14 35.1716 13.3284 34.5 12.5 34.5C11.6716 34.5 11 35.1716 11 36C11 36.8284 11.6716 37.5 12.5 37.5Z" fill="#CCCCCC"/>
<path opacity="0.4" d="M12.5 25.5C13.3284 25.5 14 24.8284 14 24C14 23.1716 13.3284 22.5 12.5 22.5C11.6716 22.5 11 23.1716 11 24C11 24.8284 11.6716 25.5 12.5 25.5Z" fill="#CCCCCC"/>
<path opacity="0.4" d="M36.5 31.5C37.3284 31.5 38 30.8284 38 30C38 29.1716 37.3284 28.5 36.5 28.5C35.6716 28.5 35 29.1716 35 30C35 30.8284 35.6716 31.5 36.5 31.5Z" fill="#CCCCCC"/>
<path opacity="0.4" d="M36.5 37.5C37.3284 37.5 38 36.8284 38 36C38 35.1716 37.3284 34.5 36.5 34.5C35.6716 34.5 35 35.1716 35 36C35 36.8284 35.6716 37.5 36.5 37.5Z" fill="#CCCCCC"/>
<path opacity="0.4" d="M18.5 37.5C19.3284 37.5 20 36.8284 20 36C20 35.1716 19.3284 34.5 18.5 34.5C17.6716 34.5 17 35.1716 17 36C17 36.8284 17.6716 37.5 18.5 37.5Z" fill="#CCCCCC"/>
<path opacity="0.4" d="M18.5 25.5C19.3284 25.5 20 24.8284 20 24C20 23.1716 19.3284 22.5 18.5 22.5C17.6716 22.5 17 23.1716 17 24C17 24.8284 17.6716 25.5 18.5 25.5Z" fill="#CCCCCC"/>
<path opacity="0.4" d="M24.5 37.5C25.3284 37.5 26 36.8284 26 36C26 35.1716 25.3284 34.5 24.5 34.5C23.6716 34.5 23 35.1716 23 36C23 36.8284 23.6716 37.5 24.5 37.5Z" fill="#CCCCCC"/>
<path opacity="0.4" d="M24.5 31.5C25.3284 31.5 26 30.8284 26 30C26 29.1716 25.3284 28.5 24.5 28.5C23.6716 28.5 23 29.1716 23 30C23 30.8284 23.6716 31.5 24.5 31.5Z" fill="#CCCCCC"/>
<path d="M19 31.5C19.8284 31.5 20.5 30.8284 20.5 30C20.5 29.1716 19.8284 28.5 19 28.5H12C11.1716 28.5 10.5 29.1716 10.5 30C10.5 30.8284 11.1716 31.5 12 31.5H19Z" fill="#CCCCCC"/>
<path d="M36 4.5C36 3.67157 35.3284 3 34.5 3C33.6716 3 33 3.67157 33 4.5V11.5C33 12.3284 33.6716 13 34.5 13C35.3284 13 36 12.3284 36 11.5V4.5Z" fill="#CCCCCC"/>
<path d="M16 4.5C16 3.67157 15.3284 3 14.5 3C13.6716 3 13 3.67157 13 4.5V11.5C13 12.3284 13.6716 13 14.5 13C15.3284 13 16 12.3284 16 11.5V4.5Z" fill="#CCCCCC"/>
<path d="M42 18.5C42.8284 18.5 43.5 17.8284 43.5 17C43.5 16.1716 42.8284 15.5 42 15.5L5 15.5C4.17157 15.5 3.5 16.1716 3.5 17C3.5 17.8284 4.17157 18.5 5 18.5L42 18.5Z" fill="#CCCCCC"/>
</svg>
