<svg width="29" height="28" viewBox="0 0 29 28" fill="none" xmlns="http://www.w3.org/2000/svg">
<g clip-path="url(#clip0_283_2899)">
<path d="M28.6665 14C28.6665 6.26801 22.3985 0 14.6665 0C6.93451 0 0.666504 6.26801 0.666504 14C0.666504 20.9877 5.78607 26.7796 12.479 27.8299V18.0469H8.92432V14H12.479V10.9156C12.479 7.40688 14.5692 5.46875 17.767 5.46875C19.2983 5.46875 20.9009 5.74219 20.9009 5.74219V9.1875H19.1356C17.3965 9.1875 16.854 10.2668 16.854 11.375V14H20.7368L20.1161 18.0469H16.854V27.8299C23.5469 26.7796 28.6665 20.9877 28.6665 14Z" fill="#CCCCCC"/>
</g>
<defs>
<clipPath id="clip0_283_2899">
<rect width="28" height="28" fill="white" transform="translate(0.666504)"/>
</clipPath>
</defs>
</svg>
