<svg width="158" height="31" viewBox="0 0 158 31" fill="none" xmlns="http://www.w3.org/2000/svg">
<g clip-path="url(#clip0_338_3388)">
<path d="M46.099 0.00209207H45.7336C33.1556 -0.0921778 23.1464 5.80246 15.3073 12.3847C13.4472 10.577 10.6791 7.45496 9.05151 4.22206H2.85662C4.06349 6.51226 6.83707 10.8653 11.6203 15.6842C7.75053 19.2276 2.75144 24.7618 0 29.1038H9.37814C9.37814 29.1038 9.37814 29.0927 9.38367 29.0871C11.4652 25.1111 13.5302 22.1555 15.9716 19.5659C22.6371 24.7452 31.8491 29.3866 46.4257 30.0021V16.6324H41.338V24.6287C32.4249 23.8967 25.4771 20.5418 19.3542 15.8893C26.1414 9.11854 36.2005 2.39766 45.7004 2.66937C50.5943 2.7581 53.1188 5.03721 53.1908 7.37732C53.3624 9.43462 52.0614 12.3514 47.3779 12.3514H47.2007C44.5711 12.3514 42.4286 11.5807 42.4286 9.29045V9.01873C42.4286 8.41984 42.9988 6.85052 45.0361 6.85052H45.3738C46.4644 6.85052 47.018 7.12779 47.018 7.66013V7.73222C47.018 8.00394 47.0236 8.28675 46.3703 8.40875C45.7724 8.51411 45.3738 8.71374 45.169 9.00209C45.0638 9.16291 44.9586 9.5178 45.0804 9.78398C45.3738 10.4106 46.0658 10.6102 46.9903 10.6102C48.0699 10.6102 51.2808 10.2886 51.2808 7.79876V7.68231C51.2808 4.80431 47.09 4.24978 45.3295 4.24978H45.1081C38.5976 4.24978 37.889 8.15366 37.889 9.12409V9.39581C37.889 13.0113 42.5725 15.0243 47.0568 14.9577H47.854C54.691 14.9965 57.83 11.6139 57.83 8.26457L57.8466 7.85976C57.7968 3.09636 52.3382 0.00209207 46.099 0.00209207Z" fill="white"/>
<path d="M55.0953 16.6324H50.0464V30.0021H55.0953V16.6324Z" fill="white"/>
<path d="M92.0868 10.3607C88.7873 10.3607 86.7334 13.089 86.7334 17.4864C86.7334 21.8838 88.8316 24.6343 92.0868 24.6343C95.342 24.6343 97.4347 21.8949 97.4347 17.4864C97.4347 13.0779 95.3863 10.3607 92.0868 10.3607ZM92.0868 22.2165C90.3097 22.2165 89.3852 19.8376 89.3852 17.4864C89.3852 14.7138 90.4979 12.7784 92.0868 12.7784C93.6757 12.7784 94.7884 14.7138 94.7884 17.4864C94.7884 19.8321 93.8639 22.2165 92.0868 22.2165Z" fill="white"/>
<path d="M80.2731 29.442V19.1833H83.3677C83.4342 19.1833 83.4563 19.1611 83.4563 19.089V16.9818C83.4563 16.9152 83.4342 16.8875 83.3677 16.8875H80.2731V9.16847C80.2731 9.06865 80.1789 9.07974 80.1789 9.07974H77.6656C77.5991 9.07974 77.5825 9.10192 77.5825 9.16847V29.4309C77.5825 29.4975 77.5991 29.5197 77.6656 29.5197H80.2122C80.2122 29.5197 80.2786 29.5197 80.2786 29.4365L80.2731 29.442Z" fill="white"/>
<path d="M102.694 19.1833V29.442C102.694 29.5252 102.628 29.5252 102.628 29.5252H100.081C100.015 29.5252 99.998 29.503 99.998 29.4365V9.17401C99.998 9.10193 100.015 9.08529 100.081 9.08529H102.6C102.6 9.08529 102.689 9.0742 102.689 9.17401V19.1888L102.694 19.1833Z" fill="white"/>
<path d="M76.3644 22.4938L74.8752 24.1906C74.8032 24.2572 74.77 24.2295 74.7202 24.1906C73.6019 23.2979 71.4705 21.296 70.4186 19.9762C69.1509 21.5289 67.6229 22.8265 65.342 24.2905C65.342 24.2905 65.2535 24.3681 65.1981 24.2905L63.8694 22.5271C63.803 22.4439 63.8971 22.3884 63.8971 22.3884L63.9968 22.3163C67.7724 19.9596 70.5349 16.0391 71.3155 13.3884C71.3708 13.1833 71.393 13.0668 71.4041 12.9781H65.1206C65.0542 12.9725 65.0209 12.9448 65.0209 12.8727V10.7655C65.0209 10.699 65.0431 10.6712 65.1151 10.6712H73.6462C74.2164 10.6712 74.3825 10.8542 74.3714 11.4143C74.3714 11.6028 74.3492 11.8025 74.3437 11.8468C74.0946 13.6657 73.0704 16.2664 71.9466 17.9688C72.9376 19.3108 74.8475 21.2073 76.3312 22.3219C76.3312 22.3219 76.4419 22.4051 76.3644 22.4882V22.4938Z" fill="white"/>
<path d="M122.84 23.9245C122.22 24.6786 121.489 25.2609 120.659 25.6602C119.834 26.0594 118.876 26.259 117.819 26.259C116.839 26.259 115.936 26.076 115.134 25.7156C114.325 25.3552 113.628 24.8616 113.052 24.2406C112.476 23.625 112.017 22.882 111.69 22.0446C111.364 21.2073 111.197 20.2812 111.197 19.3053C111.197 18.3903 111.364 17.503 111.69 16.6657C112.017 15.8228 112.482 15.0742 113.063 14.442C113.65 13.8099 114.353 13.2942 115.161 12.9171C115.964 12.5455 116.855 12.3515 117.813 12.3515C118.638 12.3515 119.441 12.5234 120.205 12.8561C120.958 13.1888 121.6 13.6934 122.115 14.3589L122.275 14.5696L124.595 12.9448L124.412 12.7119C123.62 11.7082 122.618 10.9762 121.445 10.5326C120.288 10.0945 119.064 9.87827 117.813 9.87827C116.435 9.87827 115.156 10.1278 114.004 10.6158C112.853 11.1038 111.845 11.7748 111.004 12.6176C110.162 13.4605 109.503 14.4698 109.038 15.6121C108.573 16.7544 108.341 17.9966 108.341 19.3053C108.341 20.6139 108.584 21.9337 109.066 23.076C109.548 24.2184 110.218 25.2221 111.07 26.0539C111.917 26.8857 112.93 27.5455 114.082 28.0169C115.233 28.4882 116.49 28.7267 117.813 28.7267C119.291 28.7267 120.636 28.4716 121.816 27.967C123 27.4568 124.03 26.6528 124.877 25.5714L125.043 25.3552L123.011 23.7082L122.84 23.9189V23.9245Z" fill="white"/>
<path d="M137.627 21.1019H135.888L134.15 23.9078L131.404 21.1019C131.736 20.9356 132.063 20.7526 132.384 20.5474C132.705 20.3422 132.998 20.1149 133.264 19.8598C133.524 19.6047 133.74 19.3163 133.906 18.9947C134.072 18.6731 134.156 18.3182 134.156 17.93C134.156 17.4698 134.072 17.0705 133.901 16.7211C133.729 16.3718 133.497 16.089 133.198 15.8561C132.899 15.6287 132.556 15.4513 132.163 15.3348C131.769 15.2184 131.354 15.1574 130.917 15.1574C130.48 15.1574 130.037 15.2184 129.633 15.3404C129.228 15.4624 128.874 15.6454 128.57 15.8894C128.265 16.1278 128.022 16.4328 127.839 16.7877C127.656 17.1481 127.562 17.5529 127.562 18.0132C127.562 18.6121 127.717 19.1444 128.022 19.5992C128.326 20.0594 128.691 20.4919 129.123 20.9023C128.73 21.0797 128.365 21.2794 128.016 21.5123C127.667 21.7396 127.363 22.0058 127.103 22.3053C126.842 22.6047 126.632 22.9374 126.477 23.309C126.322 23.6805 126.25 24.0797 126.25 24.5178C126.25 25.0834 126.361 25.5825 126.588 26.0261C126.815 26.4698 127.114 26.8413 127.485 27.1463C127.855 27.4513 128.293 27.6842 128.797 27.845C129.295 28.0058 129.821 28.0834 130.374 28.0834C131.244 28.0834 131.974 27.906 132.572 27.5566C133.17 27.2017 133.735 26.7082 134.255 26.076L136.016 27.8727H138.125L135.158 24.9448L137.649 21.1019H137.627ZM129.09 18.1019C129.09 17.5862 129.273 17.1759 129.638 16.8764C130.003 16.577 130.446 16.4273 130.956 16.4273C131.41 16.4273 131.797 16.5548 132.118 16.8154C132.439 17.076 132.605 17.4309 132.605 17.8912C132.605 18.1962 132.539 18.4679 132.406 18.7008C132.273 18.9337 132.102 19.1444 131.891 19.3163C131.681 19.4938 131.454 19.6491 131.194 19.7932C130.939 19.9319 130.684 20.0705 130.441 20.198L129.981 19.7378C129.76 19.516 129.555 19.272 129.367 19.0058C129.179 18.7396 129.084 18.4402 129.084 18.0964L129.09 18.1019ZM132.672 25.7489C132.456 25.9541 132.235 26.137 131.996 26.2979C131.758 26.4587 131.498 26.5807 131.216 26.6749C130.934 26.7692 130.629 26.8136 130.302 26.8136C129.976 26.8136 129.638 26.7526 129.334 26.6361C129.029 26.5197 128.758 26.3533 128.525 26.1426C128.293 25.9319 128.11 25.6823 127.977 25.3995C127.844 25.1167 127.778 24.8062 127.778 24.4624C127.778 24.1186 127.844 23.8358 127.977 23.564C128.11 23.2923 128.287 23.0539 128.509 22.8431C128.73 22.6324 128.974 22.4383 129.239 22.272C129.505 22.1001 129.782 21.9448 130.064 21.8062L133.309 25.089C133.098 25.3219 132.888 25.5437 132.677 25.7489H132.672Z" fill="white"/>
<path d="M150.066 10.3219H147.691L139.47 28.2831H142.51L144.375 24.0077H153.05L154.888 28.2831H158L150.066 10.3219ZM151.998 21.5345H145.46L148.81 13.8986L151.998 21.5345Z" fill="white"/>
</g>
<defs>
<clipPath id="clip0_338_3388">
<rect width="158" height="30.0011" fill="white" transform="translate(0 0.000976562)"/>
</clipPath>
</defs>
</svg>
