<svg width="158" height="31" viewBox="0 0 158 31" fill="none" xmlns="http://www.w3.org/2000/svg">
<g clip-path="url(#clip0_243_5687)">
<path d="M46.099 0.00209207H45.7336C33.1556 -0.0921778 23.1464 5.80246 15.3073 12.3847C13.4472 10.577 10.6791 7.45496 9.05151 4.22206H2.85662C4.06349 6.51226 6.83707 10.8653 11.6203 15.6842C7.75053 19.2276 2.75144 24.7618 0 29.1038H9.37814C9.37814 29.1038 9.37814 29.0927 9.38367 29.0871C11.4652 25.1111 13.5302 22.1555 15.9716 19.5659C22.6371 24.7452 31.8491 29.3866 46.4257 30.0021V16.6324H41.338V24.6287C32.4249 23.8967 25.4771 20.5418 19.3542 15.8893C26.1414 9.11854 36.2005 2.39766 45.7004 2.66937C50.5943 2.7581 53.1188 5.03721 53.1908 7.37732C53.3624 9.43462 52.0614 12.3514 47.3779 12.3514H47.2007C44.5711 12.3514 42.4286 11.5807 42.4286 9.29045V9.01873C42.4286 8.41984 42.9988 6.85052 45.0361 6.85052H45.3738C46.4644 6.85052 47.018 7.12779 47.018 7.66013V7.73222C47.018 8.00394 47.0236 8.28675 46.3703 8.40875C45.7724 8.51411 45.3738 8.71374 45.169 9.00209C45.0638 9.16291 44.9586 9.5178 45.0804 9.78398C45.3738 10.4106 46.0658 10.6102 46.9903 10.6102C48.0699 10.6102 51.2808 10.2886 51.2808 7.79877V7.68231C51.2808 4.80431 47.09 4.24978 45.3295 4.24978H45.1081C38.5976 4.24978 37.889 8.15366 37.889 9.12409V9.39581C37.889 13.0113 42.5725 15.0243 47.0568 14.9577H47.854C54.691 14.9965 57.83 11.6139 57.83 8.26457L57.8466 7.85976C57.7968 3.09636 52.3382 0.00209207 46.099 0.00209207Z" fill="#006A85"/>
<path d="M55.0951 16.6323H50.0461V30.002H55.0951V16.6323Z" fill="#006A85"/>
<path d="M92.0868 10.3608C88.7873 10.3608 86.7334 13.0891 86.7334 17.4865C86.7334 21.8839 88.8316 24.6344 92.0868 24.6344C95.342 24.6344 97.4347 21.895 97.4347 17.4865C97.4347 13.078 95.3863 10.3608 92.0868 10.3608ZM92.0868 22.2167C90.3097 22.2167 89.3852 19.8377 89.3852 17.4865C89.3852 14.7139 90.4979 12.7786 92.0868 12.7786C93.6757 12.7786 94.7884 14.7139 94.7884 17.4865C94.7884 19.8322 93.8639 22.2167 92.0868 22.2167Z" fill="#696D73"/>
<path d="M80.2728 29.4422V19.1835H83.3675C83.4339 19.1835 83.4561 19.1613 83.4561 19.0892V16.982C83.4561 16.9154 83.4339 16.8877 83.3675 16.8877H80.2728V9.16868C80.2728 9.06887 80.1787 9.07996 80.1787 9.07996H77.6653C77.5989 9.07996 77.5823 9.10214 77.5823 9.16868V29.4312C77.5823 29.4977 77.5989 29.5199 77.6653 29.5199H80.2119C80.2119 29.5199 80.2783 29.5199 80.2783 29.4367L80.2728 29.4422Z" fill="#696D73"/>
<path d="M102.694 19.1833V29.4421C102.694 29.5253 102.628 29.5253 102.628 29.5253H100.081C100.015 29.5253 99.998 29.5031 99.998 29.4365V9.17405C99.998 9.10196 100.015 9.08533 100.081 9.08533H102.6C102.6 9.08533 102.689 9.07424 102.689 9.17405V19.1888L102.694 19.1833Z" fill="#696D73"/>
<path d="M76.3644 22.4939L74.8752 24.1908C74.8032 24.2573 74.77 24.2296 74.7202 24.1908C73.6019 23.298 71.4705 21.2962 70.4186 19.9764C69.1509 21.5291 67.6229 22.8267 65.342 24.2906C65.342 24.2906 65.2535 24.3682 65.1981 24.2906L63.8694 22.5272C63.803 22.444 63.8971 22.3886 63.8971 22.3886L63.9968 22.3165C67.7724 19.9597 70.5349 16.0392 71.3155 13.3886C71.3708 13.1834 71.393 13.067 71.4041 12.9782H65.1206C65.0542 12.9727 65.0209 12.945 65.0209 12.8729V10.7657C65.0209 10.6991 65.0431 10.6714 65.1151 10.6714H73.6462C74.2164 10.6714 74.3825 10.8544 74.3714 11.4145C74.3714 11.603 74.3492 11.8026 74.3437 11.847C74.0946 13.6658 73.0704 16.2666 71.9466 17.969C72.9376 19.3109 74.8475 21.2074 76.3312 22.322C76.3312 22.322 76.4419 22.4052 76.3644 22.4884V22.4939Z" fill="#696D73"/>
<path d="M122.84 23.9246C122.22 24.6788 121.489 25.261 120.659 25.6603C119.834 26.0596 118.876 26.2592 117.819 26.2592C116.839 26.2592 115.936 26.0762 115.134 25.7158C114.325 25.3553 113.628 24.8618 113.052 24.2407C112.476 23.6252 112.017 22.8821 111.69 22.0448C111.364 21.2074 111.197 20.2814 111.197 19.3054C111.197 18.3904 111.364 17.5032 111.69 16.6658C112.017 15.823 112.482 15.0744 113.063 14.4422C113.65 13.81 114.353 13.2943 115.161 12.9172C115.964 12.5457 116.855 12.3516 117.813 12.3516C118.638 12.3516 119.441 12.5235 120.205 12.8562C120.958 13.189 121.6 13.6936 122.115 14.359L122.275 14.5697L124.595 12.945L124.412 12.7121C123.62 11.7084 122.618 10.9764 121.445 10.5328C120.288 10.0947 119.064 9.87842 117.813 9.87842C116.435 9.87842 115.156 10.128 114.004 10.6159C112.853 11.1039 111.845 11.7749 111.004 12.6178C110.162 13.4607 109.503 14.4699 109.038 15.6122C108.573 16.7546 108.341 17.9967 108.341 19.3054C108.341 20.6141 108.584 21.9339 109.066 23.0762C109.548 24.2185 110.218 25.2222 111.07 26.054C111.917 26.8858 112.93 27.5457 114.082 28.017C115.233 28.4884 116.49 28.7268 117.813 28.7268C119.291 28.7268 120.636 28.4718 121.816 27.9671C123 27.457 124.03 26.6529 124.877 25.5716L125.043 25.3553L123.011 23.7084L122.84 23.9191V23.9246Z" fill="#696D73"/>
<path d="M137.627 21.1023H135.888L134.15 23.9082L131.404 21.1023C131.736 20.9359 132.063 20.7529 132.384 20.5477C132.705 20.3426 132.998 20.1152 133.264 19.8601C133.524 19.605 133.74 19.3167 133.906 18.9951C134.072 18.6734 134.156 18.3185 134.156 17.9304C134.156 17.4701 134.072 17.0708 133.901 16.7215C133.729 16.3721 133.497 16.0893 133.198 15.8564C132.899 15.6291 132.556 15.4516 132.163 15.3352C131.769 15.2187 131.354 15.1577 130.917 15.1577C130.48 15.1577 130.037 15.2187 129.633 15.3407C129.228 15.4627 128.874 15.6457 128.57 15.8897C128.265 16.1281 128.022 16.4331 127.839 16.788C127.656 17.1485 127.562 17.5533 127.562 18.0135C127.562 18.6124 127.717 19.1448 128.022 19.5995C128.326 20.0597 128.691 20.4923 129.123 20.9026C128.73 21.0801 128.365 21.2797 128.016 21.5126C127.667 21.74 127.363 22.0061 127.103 22.3056C126.842 22.605 126.632 22.9378 126.477 23.3093C126.322 23.6808 126.25 24.0801 126.25 24.5182C126.25 25.0838 126.361 25.5829 126.588 26.0265C126.815 26.4701 127.114 26.8416 127.485 27.1466C127.855 27.4516 128.293 27.6845 128.797 27.8453C129.295 28.0061 129.821 28.0838 130.374 28.0838C131.244 28.0838 131.974 27.9063 132.572 27.557C133.17 27.2021 133.735 26.7085 134.255 26.0764L136.016 27.8731H138.125L135.158 24.9451L137.649 21.1023H137.627ZM129.09 18.1023C129.09 17.5866 129.273 17.1762 129.638 16.8768C130.003 16.5773 130.446 16.4276 130.956 16.4276C131.41 16.4276 131.797 16.5551 132.118 16.8158C132.439 17.0764 132.605 17.4313 132.605 17.8915C132.605 18.1965 132.539 18.4683 132.406 18.7012C132.273 18.9341 132.102 19.1448 131.891 19.3167C131.681 19.4941 131.454 19.6494 131.194 19.7936C130.939 19.9322 130.684 20.0708 130.441 20.1984L129.981 19.7381C129.76 19.5163 129.555 19.2723 129.367 19.0061C129.179 18.74 129.084 18.4405 129.084 18.0967L129.09 18.1023ZM132.672 25.7492C132.456 25.9544 132.235 26.1374 131.996 26.2982C131.758 26.459 131.498 26.581 131.216 26.6753C130.934 26.7695 130.629 26.8139 130.302 26.8139C129.976 26.8139 129.638 26.7529 129.334 26.6365C129.029 26.52 128.758 26.3536 128.525 26.1429C128.293 25.9322 128.11 25.6827 127.977 25.3999C127.844 25.1171 127.778 24.8065 127.778 24.4627C127.778 24.1189 127.844 23.8361 127.977 23.5644C128.11 23.2927 128.287 23.0542 128.509 22.8435C128.73 22.6328 128.974 22.4387 129.239 22.2723C129.505 22.1004 129.782 21.9451 130.064 21.8065L133.309 25.0893C133.098 25.3222 132.888 25.544 132.677 25.7492H132.672Z" fill="#696D73"/>
<path d="M150.066 10.3223H147.691L139.47 28.2834H142.51L144.375 24.008H153.05L154.888 28.2834H158L150.066 10.3223ZM151.998 21.5348H145.46L148.81 13.899L151.998 21.5348Z" fill="#696D73"/>
</g>
<defs>
<clipPath id="clip0_243_5687">
<rect width="158" height="30.0011" fill="white" transform="translate(0 0.000976562)"/>
</clipPath>
</defs>
</svg>
