<svg width="200" height="38" viewBox="0 0 200 38" fill="none" xmlns="http://www.w3.org/2000/svg">
<g clip-path="url(#clip0_287_2363)">
<rect width="200" height="38" fill="#EEEEEE"/>
<path d="M58.3532 0.00141292H57.8907C41.9692 -0.117991 29.2992 7.34828 19.3763 15.6855C17.0217 13.3957 13.5179 9.44136 11.4576 5.3465H3.61598C5.14366 8.24732 8.65452 13.761 14.7092 19.8646C9.81079 24.3528 3.48283 31.3625 0 36.8622H11.8711C11.8711 36.8622 11.8711 36.8481 11.8781 36.8411C14.513 31.805 17.1268 28.0614 20.2172 24.7813C28.6545 31.3415 40.3154 37.2204 58.7666 38V21.0657H52.3266V31.194C41.0442 30.2668 32.2495 26.0175 24.499 20.1245C33.0904 11.5485 45.8234 3.03568 57.8486 3.37985C64.0435 3.49223 67.239 6.379 67.3301 9.34303C67.5473 11.9488 65.9005 15.6433 59.972 15.6433H59.7477C56.4191 15.6433 53.7071 14.667 53.7071 11.7662V11.4221C53.7071 10.6635 54.4289 8.67577 57.0077 8.67577H57.4352C58.8157 8.67577 59.5165 9.02696 59.5165 9.70124V9.79255C59.5165 10.1367 59.5235 10.4949 58.6966 10.6494C57.9397 10.7829 57.4352 11.0358 57.1759 11.401C57.0427 11.6047 56.9096 12.0542 57.0638 12.3913C57.4352 13.185 58.3111 13.4379 59.4814 13.4379C60.8479 13.4379 64.9124 13.0305 64.9124 9.87683V9.72933C64.9124 6.084 59.6076 5.38162 57.3791 5.38162H57.0988C48.8578 5.38162 47.9608 10.3264 47.9608 11.5555V11.8997C47.9608 16.4792 53.8893 19.0288 59.5655 18.9445H60.5746C69.2292 18.9937 73.2025 14.7092 73.2025 10.4668L73.2236 9.95409C73.1605 3.92068 66.2509 0.00141292 58.3532 0.00141292Z" fill="#006A85"/>
<path d="M69.7406 21.0659H63.3496V38.0002H69.7406V21.0659Z" fill="#006A85"/>
<path d="M116.566 13.1221C112.389 13.1221 109.789 16.5778 109.789 22.1476C109.789 27.7175 112.445 31.2012 116.566 31.2012C120.686 31.2012 123.335 27.7315 123.335 22.1476C123.335 16.5637 120.742 13.1221 116.566 13.1221ZM116.566 28.1389C114.316 28.1389 113.146 25.1257 113.146 22.1476C113.146 18.6357 114.555 16.1844 116.566 16.1844C118.577 16.1844 119.986 18.6357 119.986 22.1476C119.986 25.1187 118.815 28.1389 116.566 28.1389Z" fill="#696D73"/>
<path d="M101.611 37.2908V24.2968H105.529C105.613 24.2968 105.641 24.2687 105.641 24.1774V21.5084C105.641 21.4241 105.613 21.389 105.529 21.389H101.611V11.6119C101.611 11.4854 101.492 11.4995 101.492 11.4995H98.3107C98.2266 11.4995 98.2056 11.5276 98.2056 11.6119V37.2767C98.2056 37.361 98.2266 37.3891 98.3107 37.3891H101.534C101.534 37.3891 101.618 37.3891 101.618 37.2837L101.611 37.2908Z" fill="#696D73"/>
<path d="M129.993 24.2966V37.2906C129.993 37.3959 129.908 37.3959 129.908 37.3959H126.685C126.601 37.3959 126.58 37.3678 126.58 37.2836V11.6187C126.58 11.5274 126.601 11.5063 126.685 11.5063H129.873C129.873 11.5063 129.986 11.4923 129.986 11.6187V24.3036L129.993 24.2966Z" fill="#696D73"/>
<path d="M96.6638 28.4898L94.7787 30.6391C94.6876 30.7234 94.6456 30.6883 94.5825 30.6391C93.167 29.5083 90.469 26.9727 89.1375 25.301C87.5328 27.2677 85.5987 28.9112 82.7115 30.7655C82.7115 30.7655 82.5994 30.8638 82.5293 30.7655L80.8474 28.532C80.7633 28.4266 80.8825 28.3564 80.8825 28.3564L81.0086 28.2651C85.7879 25.28 89.2847 20.3141 90.2728 16.9568C90.3429 16.6969 90.3709 16.5494 90.3849 16.437H82.4312C82.3471 16.43 82.305 16.3949 82.305 16.3036V13.6345C82.305 13.5503 82.3331 13.5151 82.4242 13.5151H93.223C93.9448 13.5151 94.1551 13.7469 94.141 14.4563C94.141 14.6951 94.113 14.948 94.106 15.0042C93.7907 17.308 92.4942 20.6021 91.0717 22.7584C92.3261 24.4582 94.7437 26.8603 96.6218 28.2721C96.6218 28.2721 96.7619 28.3774 96.6638 28.4828V28.4898Z" fill="#696D73"/>
<path d="M155.494 30.3019C154.709 31.2572 153.784 31.9947 152.733 32.5004C151.688 33.0061 150.476 33.259 149.138 33.259C147.897 33.259 146.755 33.0272 145.739 32.5706C144.716 32.1141 143.833 31.489 143.104 30.7023C142.375 29.9227 141.794 28.9815 141.38 27.9209C140.967 26.8603 140.756 25.6873 140.756 24.4512C140.756 23.2922 140.967 22.1684 141.38 21.1078C141.794 20.0402 142.382 19.092 143.118 18.2913C143.861 17.4906 144.751 16.8374 145.774 16.3598C146.79 15.8892 147.918 15.6433 149.131 15.6433C150.175 15.6433 151.191 15.8611 152.158 16.2825C153.111 16.7039 153.924 17.3431 154.576 18.1859L154.779 18.4529L157.715 16.3949L157.484 16.0999C156.482 14.8286 155.213 13.9014 153.728 13.3395C152.263 12.7847 150.714 12.5107 149.131 12.5107C147.386 12.5107 145.767 12.8268 144.309 13.4449C142.852 14.063 141.576 14.9129 140.511 15.9805C139.446 17.0481 138.612 18.3264 138.023 19.7733C137.435 21.2202 137.14 22.7935 137.14 24.4512C137.14 26.1088 137.449 27.7804 138.058 29.2273C138.668 30.6742 139.516 31.9455 140.595 32.9991C141.667 34.0526 142.95 34.8885 144.407 35.4855C145.865 36.0825 147.456 36.3845 149.131 36.3845C151.002 36.3845 152.705 36.0614 154.197 35.4223C155.697 34.7761 157 33.7576 158.072 32.388L158.283 32.1141L155.711 30.028L155.494 30.2949V30.3019Z" fill="#696D73"/>
<path d="M174.211 26.7267H172.011L169.81 30.2808L166.334 26.7267C166.755 26.516 167.168 26.2842 167.575 26.0244C167.981 25.7645 168.353 25.4765 168.689 25.1534C169.018 24.8303 169.292 24.4651 169.502 24.0577C169.712 23.6503 169.817 23.2008 169.817 22.7092C169.817 22.1262 169.712 21.6205 169.495 21.178C169.278 20.7355 168.983 20.3773 168.605 20.0823C168.227 19.7943 167.792 19.5695 167.295 19.422C166.797 19.2745 166.271 19.1973 165.718 19.1973C165.164 19.1973 164.604 19.2745 164.092 19.429C163.58 19.5836 163.132 19.8154 162.747 20.1244C162.361 20.4264 162.053 20.8127 161.822 21.2623C161.59 21.7188 161.471 22.2315 161.471 22.8145C161.471 23.5731 161.667 24.2474 162.053 24.8233C162.438 25.4063 162.901 25.9541 163.447 26.4739C162.95 26.6987 162.487 26.9515 162.046 27.2465C161.604 27.5345 161.219 27.8716 160.889 28.2509C160.56 28.6302 160.294 29.0516 160.098 29.5222C159.901 29.9928 159.81 30.4985 159.81 31.0534C159.81 31.7698 159.95 32.402 160.238 32.9639C160.525 33.5258 160.904 33.9963 161.373 34.3827C161.843 34.769 162.396 35.064 163.034 35.2676C163.665 35.4713 164.33 35.5697 165.031 35.5697C166.131 35.5697 167.056 35.3449 167.813 34.9024C168.57 34.4529 169.285 33.8278 169.943 33.0271L172.172 35.3028H174.842L171.086 31.5942L174.239 26.7267H174.211ZM163.405 22.9269C163.405 22.2737 163.637 21.7539 164.099 21.3746C164.562 20.9954 165.122 20.8057 165.767 20.8057C166.341 20.8057 166.832 20.9673 167.238 21.2974C167.645 21.6275 167.855 22.077 167.855 22.66C167.855 23.0463 167.771 23.3905 167.603 23.6855C167.435 23.9805 167.217 24.2474 166.951 24.4651C166.685 24.6899 166.398 24.8865 166.068 25.0691C165.746 25.2447 165.423 25.4203 165.115 25.5819L164.533 24.9989C164.253 24.7179 163.994 24.4089 163.756 24.0718C163.517 23.7346 163.398 23.3553 163.398 22.9199L163.405 22.9269ZM167.939 32.6127C167.666 32.8725 167.386 33.1043 167.084 33.308C166.783 33.5117 166.454 33.6662 166.096 33.7856C165.739 33.905 165.353 33.9612 164.94 33.9612C164.526 33.9612 164.099 33.884 163.714 33.7365C163.328 33.589 162.985 33.3783 162.69 33.1114C162.396 32.8444 162.165 32.5284 161.997 32.1702C161.829 31.812 161.744 31.4186 161.744 30.9832C161.744 30.5477 161.829 30.1895 161.997 29.8453C162.165 29.5011 162.389 29.1991 162.669 28.9322C162.95 28.6653 163.258 28.4195 163.594 28.2088C163.931 27.991 164.281 27.7944 164.639 27.6188L168.745 31.7768C168.479 32.0718 168.213 32.3528 167.946 32.6127H167.939Z" fill="#696D73"/>
<path d="M189.957 13.0728H186.951L176.545 35.8227H180.392L182.754 30.4074H193.735L196.061 35.8227H199.999L189.957 13.0728ZM192.403 27.2748H184.127L188.367 17.6031L192.403 27.2748Z" fill="#696D73"/>
</g>
<defs>
<clipPath id="clip0_287_2363">
<rect width="200" height="38" fill="white"/>
</clipPath>
</defs>
</svg>
